<mxfile host="app.diagrams.net" agent="Mozilla/5.0 (Windows NT 10.0; Win64; x64) AppleWebKit/537.36 (KHTML, like Gecko) Chrome/141.0.0.0 Safari/537.36" version="28.2.7">
  <diagram name="Page-1" id="QbKczEGgD0qj6rreZNLG">
    <mxGraphModel dx="2240" dy="846" grid="1" gridSize="10" guides="1" tooltips="1" connect="1" arrows="1" fold="1" page="1" pageScale="1" pageWidth="1100" pageHeight="850" math="0" shadow="0">
      <root>
        <mxCell id="0" />
        <mxCell id="1" parent="0" />
        <mxCell id="1R9RX3AhEyXm8f2iCuX_-34" value="" style="edgeStyle=orthogonalEdgeStyle;rounded=0;orthogonalLoop=1;jettySize=auto;html=1;entryX=0;entryY=0.5;entryDx=0;entryDy=0;exitX=1;exitY=0.5;exitDx=0;exitDy=0;" parent="1" source="1R9RX3AhEyXm8f2iCuX_-3" target="1R9RX3AhEyXm8f2iCuX_-28" edge="1">
          <mxGeometry relative="1" as="geometry">
            <mxPoint x="270" y="250" as="sourcePoint" />
            <mxPoint x="370" y="295" as="targetPoint" />
            <Array as="points">
              <mxPoint x="280" y="185" />
              <mxPoint x="280" y="260" />
            </Array>
          </mxGeometry>
        </mxCell>
        <mxCell id="1R9RX3AhEyXm8f2iCuX_-2" value="Anggota" style="swimlane;fontStyle=0;childLayout=stackLayout;horizontal=1;startSize=30;horizontalStack=0;resizeParent=1;resizeParentMax=0;resizeLast=0;collapsible=1;marginBottom=0;whiteSpace=wrap;html=1;" parent="1" vertex="1">
          <mxGeometry x="110" y="140" width="140" height="150" as="geometry" />
        </mxCell>
        <mxCell id="1R9RX3AhEyXm8f2iCuX_-3" value="&lt;u&gt;&lt;b&gt;id_anggota&lt;/b&gt;&lt;/u&gt;" style="text;strokeColor=none;fillColor=none;align=left;verticalAlign=middle;spacingLeft=4;spacingRight=4;overflow=hidden;points=[[0,0.5],[1,0.5]];portConstraint=eastwest;rotatable=0;whiteSpace=wrap;html=1;" parent="1R9RX3AhEyXm8f2iCuX_-2" vertex="1">
          <mxGeometry y="30" width="140" height="30" as="geometry" />
        </mxCell>
        <mxCell id="1R9RX3AhEyXm8f2iCuX_-4" value="nama" style="text;strokeColor=none;fillColor=none;align=left;verticalAlign=middle;spacingLeft=4;spacingRight=4;overflow=hidden;points=[[0,0.5],[1,0.5]];portConstraint=eastwest;rotatable=0;whiteSpace=wrap;html=1;" parent="1R9RX3AhEyXm8f2iCuX_-2" vertex="1">
          <mxGeometry y="60" width="140" height="30" as="geometry" />
        </mxCell>
        <mxCell id="1R9RX3AhEyXm8f2iCuX_-5" value="no_telp" style="text;strokeColor=none;fillColor=none;align=left;verticalAlign=middle;spacingLeft=4;spacingRight=4;overflow=hidden;points=[[0,0.5],[1,0.5]];portConstraint=eastwest;rotatable=0;whiteSpace=wrap;html=1;" parent="1R9RX3AhEyXm8f2iCuX_-2" vertex="1">
          <mxGeometry y="90" width="140" height="30" as="geometry" />
        </mxCell>
        <mxCell id="1R9RX3AhEyXm8f2iCuX_-22" value="email_anggota" style="text;strokeColor=none;fillColor=none;align=left;verticalAlign=middle;spacingLeft=4;spacingRight=4;overflow=hidden;points=[[0,0.5],[1,0.5]];portConstraint=eastwest;rotatable=0;whiteSpace=wrap;html=1;" parent="1R9RX3AhEyXm8f2iCuX_-2" vertex="1">
          <mxGeometry y="120" width="140" height="30" as="geometry" />
        </mxCell>
        <mxCell id="1R9RX3AhEyXm8f2iCuX_-13" value="Buku" style="swimlane;fontStyle=0;childLayout=stackLayout;horizontal=1;startSize=30;horizontalStack=0;resizeParent=1;resizeParentMax=0;resizeLast=0;collapsible=1;marginBottom=0;whiteSpace=wrap;html=1;" parent="1" vertex="1">
          <mxGeometry x="600" y="140" width="140" height="150" as="geometry" />
        </mxCell>
        <mxCell id="1R9RX3AhEyXm8f2iCuX_-14" value="&lt;u&gt;&lt;b&gt;id_buku&lt;/b&gt;&lt;/u&gt;" style="text;strokeColor=none;fillColor=none;align=left;verticalAlign=middle;spacingLeft=4;spacingRight=4;overflow=hidden;points=[[0,0.5],[1,0.5]];portConstraint=eastwest;rotatable=0;whiteSpace=wrap;html=1;" parent="1R9RX3AhEyXm8f2iCuX_-13" vertex="1">
          <mxGeometry y="30" width="140" height="30" as="geometry" />
        </mxCell>
        <mxCell id="1R9RX3AhEyXm8f2iCuX_-15" value="judul" style="text;strokeColor=none;fillColor=none;align=left;verticalAlign=middle;spacingLeft=4;spacingRight=4;overflow=hidden;points=[[0,0.5],[1,0.5]];portConstraint=eastwest;rotatable=0;whiteSpace=wrap;html=1;" parent="1R9RX3AhEyXm8f2iCuX_-13" vertex="1">
          <mxGeometry y="60" width="140" height="30" as="geometry" />
        </mxCell>
        <mxCell id="1R9RX3AhEyXm8f2iCuX_-16" value="pengarang" style="text;strokeColor=none;fillColor=none;align=left;verticalAlign=middle;spacingLeft=4;spacingRight=4;overflow=hidden;points=[[0,0.5],[1,0.5]];portConstraint=eastwest;rotatable=0;whiteSpace=wrap;html=1;" parent="1R9RX3AhEyXm8f2iCuX_-13" vertex="1">
          <mxGeometry y="90" width="140" height="30" as="geometry" />
        </mxCell>
        <mxCell id="1R9RX3AhEyXm8f2iCuX_-23" value="penerbit" style="text;strokeColor=none;fillColor=none;align=left;verticalAlign=middle;spacingLeft=4;spacingRight=4;overflow=hidden;points=[[0,0.5],[1,0.5]];portConstraint=eastwest;rotatable=0;whiteSpace=wrap;html=1;" parent="1R9RX3AhEyXm8f2iCuX_-13" vertex="1">
          <mxGeometry y="120" width="140" height="30" as="geometry" />
        </mxCell>
        <mxCell id="1R9RX3AhEyXm8f2iCuX_-24" value="Peminjaman" style="swimlane;fontStyle=0;childLayout=stackLayout;horizontal=1;startSize=30;horizontalStack=0;resizeParent=1;resizeParentMax=0;resizeLast=0;collapsible=1;marginBottom=0;whiteSpace=wrap;html=1;" parent="1" vertex="1">
          <mxGeometry x="370" y="125" width="140" height="180" as="geometry" />
        </mxCell>
        <mxCell id="1R9RX3AhEyXm8f2iCuX_-25" value="&lt;u&gt;&lt;b&gt;id_peminjaman&lt;/b&gt;&lt;/u&gt;" style="text;strokeColor=none;fillColor=none;align=left;verticalAlign=middle;spacingLeft=4;spacingRight=4;overflow=hidden;points=[[0,0.5],[1,0.5]];portConstraint=eastwest;rotatable=0;whiteSpace=wrap;html=1;" parent="1R9RX3AhEyXm8f2iCuX_-24" vertex="1">
          <mxGeometry y="30" width="140" height="30" as="geometry" />
        </mxCell>
        <mxCell id="1R9RX3AhEyXm8f2iCuX_-26" value="tanggal_pinjam" style="text;strokeColor=none;fillColor=none;align=left;verticalAlign=middle;spacingLeft=4;spacingRight=4;overflow=hidden;points=[[0,0.5],[1,0.5]];portConstraint=eastwest;rotatable=0;whiteSpace=wrap;html=1;" parent="1R9RX3AhEyXm8f2iCuX_-24" vertex="1">
          <mxGeometry y="60" width="140" height="30" as="geometry" />
        </mxCell>
        <mxCell id="1R9RX3AhEyXm8f2iCuX_-27" value="tanggal_kembali" style="text;strokeColor=none;fillColor=none;align=left;verticalAlign=middle;spacingLeft=4;spacingRight=4;overflow=hidden;points=[[0,0.5],[1,0.5]];portConstraint=eastwest;rotatable=0;whiteSpace=wrap;html=1;" parent="1R9RX3AhEyXm8f2iCuX_-24" vertex="1">
          <mxGeometry y="90" width="140" height="30" as="geometry" />
        </mxCell>
        <mxCell id="1R9RX3AhEyXm8f2iCuX_-28" value="&lt;u&gt;id_anggota&lt;/u&gt;" style="text;strokeColor=none;fillColor=none;align=left;verticalAlign=middle;spacingLeft=4;spacingRight=4;overflow=hidden;points=[[0,0.5],[1,0.5]];portConstraint=eastwest;rotatable=0;whiteSpace=wrap;html=1;" parent="1R9RX3AhEyXm8f2iCuX_-24" vertex="1">
          <mxGeometry y="120" width="140" height="30" as="geometry" />
        </mxCell>
        <mxCell id="1R9RX3AhEyXm8f2iCuX_-30" value="&lt;u&gt;id_buku&lt;/u&gt;" style="text;strokeColor=none;fillColor=none;align=left;verticalAlign=middle;spacingLeft=4;spacingRight=4;overflow=hidden;points=[[0,0.5],[1,0.5]];portConstraint=eastwest;rotatable=0;whiteSpace=wrap;html=1;" parent="1R9RX3AhEyXm8f2iCuX_-24" vertex="1">
          <mxGeometry y="150" width="140" height="30" as="geometry" />
        </mxCell>
        <mxCell id="1R9RX3AhEyXm8f2iCuX_-36" value="" style="edgeStyle=orthogonalEdgeStyle;rounded=0;orthogonalLoop=1;jettySize=auto;html=1;entryX=1;entryY=0.5;entryDx=0;entryDy=0;exitX=0;exitY=0.5;exitDx=0;exitDy=0;" parent="1" source="1R9RX3AhEyXm8f2iCuX_-14" target="1R9RX3AhEyXm8f2iCuX_-30" edge="1">
          <mxGeometry relative="1" as="geometry">
            <Array as="points">
              <mxPoint x="580" y="185" />
              <mxPoint x="580" y="290" />
            </Array>
          </mxGeometry>
        </mxCell>
        <mxCell id="1R9RX3AhEyXm8f2iCuX_-49" style="edgeStyle=orthogonalEdgeStyle;rounded=0;orthogonalLoop=1;jettySize=auto;html=1;entryX=1;entryY=0.5;entryDx=0;entryDy=0;" parent="1" source="1R9RX3AhEyXm8f2iCuX_-40" target="1R9RX3AhEyXm8f2iCuX_-43" edge="1">
          <mxGeometry relative="1" as="geometry">
            <Array as="points">
              <mxPoint x="100" y="510" />
              <mxPoint x="100" y="450" />
            </Array>
          </mxGeometry>
        </mxCell>
        <mxCell id="1R9RX3AhEyXm8f2iCuX_-50" style="edgeStyle=orthogonalEdgeStyle;rounded=0;orthogonalLoop=1;jettySize=auto;html=1;entryX=1;entryY=0.5;entryDx=0;entryDy=0;exitX=0;exitY=0.5;exitDx=0;exitDy=0;" parent="1" source="1R9RX3AhEyXm8f2iCuX_-40" target="1R9RX3AhEyXm8f2iCuX_-46" edge="1">
          <mxGeometry relative="1" as="geometry">
            <Array as="points">
              <mxPoint x="100" y="510" />
              <mxPoint x="100" y="570" />
            </Array>
          </mxGeometry>
        </mxCell>
        <mxCell id="1R9RX3AhEyXm8f2iCuX_-52" style="edgeStyle=orthogonalEdgeStyle;rounded=0;orthogonalLoop=1;jettySize=auto;html=1;entryX=0.5;entryY=0;entryDx=0;entryDy=0;exitX=0.5;exitY=1;exitDx=0;exitDy=0;" parent="1" target="1R9RX3AhEyXm8f2iCuX_-47" edge="1">
          <mxGeometry relative="1" as="geometry">
            <mxPoint x="180" y="539" as="sourcePoint" />
            <mxPoint x="180" y="598" as="targetPoint" />
            <Array as="points" />
          </mxGeometry>
        </mxCell>
        <mxCell id="1R9RX3AhEyXm8f2iCuX_-53" style="edgeStyle=orthogonalEdgeStyle;rounded=0;orthogonalLoop=1;jettySize=auto;html=1;entryX=0.5;entryY=1;entryDx=0;entryDy=0;" parent="1" source="1R9RX3AhEyXm8f2iCuX_-40" target="1R9RX3AhEyXm8f2iCuX_-48" edge="1">
          <mxGeometry relative="1" as="geometry">
            <Array as="points">
              <mxPoint x="180" y="510" />
              <mxPoint x="180" y="430" />
            </Array>
          </mxGeometry>
        </mxCell>
        <mxCell id="1R9RX3AhEyXm8f2iCuX_-56" value="" style="edgeStyle=orthogonalEdgeStyle;rounded=0;orthogonalLoop=1;jettySize=auto;html=1;" parent="1" source="1R9RX3AhEyXm8f2iCuX_-40" target="1R9RX3AhEyXm8f2iCuX_-55" edge="1">
          <mxGeometry relative="1" as="geometry" />
        </mxCell>
        <mxCell id="1R9RX3AhEyXm8f2iCuX_-58" value="1" style="edgeLabel;html=1;align=center;verticalAlign=middle;resizable=0;points=[];" parent="1R9RX3AhEyXm8f2iCuX_-56" vertex="1" connectable="0">
          <mxGeometry x="-0.4615" relative="1" as="geometry">
            <mxPoint as="offset" />
          </mxGeometry>
        </mxCell>
        <mxCell id="1R9RX3AhEyXm8f2iCuX_-40" value="Anggota" style="rounded=0;whiteSpace=wrap;html=1;" parent="1" vertex="1">
          <mxGeometry x="120" y="480" width="120" height="60" as="geometry" />
        </mxCell>
        <mxCell id="1R9RX3AhEyXm8f2iCuX_-63" value="" style="edgeStyle=orthogonalEdgeStyle;rounded=0;orthogonalLoop=1;jettySize=auto;html=1;" parent="1" source="1R9RX3AhEyXm8f2iCuX_-41" target="1R9RX3AhEyXm8f2iCuX_-54" edge="1">
          <mxGeometry relative="1" as="geometry" />
        </mxCell>
        <mxCell id="1R9RX3AhEyXm8f2iCuX_-64" value="" style="edgeStyle=orthogonalEdgeStyle;rounded=0;orthogonalLoop=1;jettySize=auto;html=1;" parent="1" source="1R9RX3AhEyXm8f2iCuX_-41" target="1R9RX3AhEyXm8f2iCuX_-62" edge="1">
          <mxGeometry relative="1" as="geometry" />
        </mxCell>
        <mxCell id="1R9RX3AhEyXm8f2iCuX_-65" style="edgeStyle=orthogonalEdgeStyle;rounded=0;orthogonalLoop=1;jettySize=auto;html=1;entryX=0.5;entryY=0;entryDx=0;entryDy=0;" parent="1" source="1R9RX3AhEyXm8f2iCuX_-41" target="1R9RX3AhEyXm8f2iCuX_-61" edge="1">
          <mxGeometry relative="1" as="geometry" />
        </mxCell>
        <mxCell id="1R9RX3AhEyXm8f2iCuX_-67" value="" style="edgeStyle=orthogonalEdgeStyle;rounded=0;orthogonalLoop=1;jettySize=auto;html=1;" parent="1" source="1R9RX3AhEyXm8f2iCuX_-41" target="1R9RX3AhEyXm8f2iCuX_-66" edge="1">
          <mxGeometry relative="1" as="geometry" />
        </mxCell>
        <mxCell id="1R9RX3AhEyXm8f2iCuX_-68" value="N" style="edgeLabel;html=1;align=center;verticalAlign=middle;resizable=0;points=[];" parent="1R9RX3AhEyXm8f2iCuX_-67" vertex="1" connectable="0">
          <mxGeometry x="-0.5859" y="2" relative="1" as="geometry">
            <mxPoint as="offset" />
          </mxGeometry>
        </mxCell>
        <mxCell id="1R9RX3AhEyXm8f2iCuX_-41" value="Peminjaman" style="rounded=0;whiteSpace=wrap;html=1;" parent="1" vertex="1">
          <mxGeometry x="416" y="480" width="120" height="60" as="geometry" />
        </mxCell>
        <mxCell id="1R9RX3AhEyXm8f2iCuX_-75" value="" style="edgeStyle=orthogonalEdgeStyle;rounded=0;orthogonalLoop=1;jettySize=auto;html=1;" parent="1" source="1R9RX3AhEyXm8f2iCuX_-42" target="1R9RX3AhEyXm8f2iCuX_-73" edge="1">
          <mxGeometry relative="1" as="geometry" />
        </mxCell>
        <mxCell id="1R9RX3AhEyXm8f2iCuX_-76" value="" style="edgeStyle=orthogonalEdgeStyle;rounded=0;orthogonalLoop=1;jettySize=auto;html=1;" parent="1" source="1R9RX3AhEyXm8f2iCuX_-42" target="1R9RX3AhEyXm8f2iCuX_-74" edge="1">
          <mxGeometry relative="1" as="geometry" />
        </mxCell>
        <mxCell id="1R9RX3AhEyXm8f2iCuX_-77" value="" style="edgeStyle=orthogonalEdgeStyle;rounded=0;orthogonalLoop=1;jettySize=auto;html=1;entryX=0.5;entryY=0;entryDx=0;entryDy=0;" parent="1" source="1R9RX3AhEyXm8f2iCuX_-42" target="1R9RX3AhEyXm8f2iCuX_-72" edge="1">
          <mxGeometry relative="1" as="geometry" />
        </mxCell>
        <mxCell id="1R9RX3AhEyXm8f2iCuX_-79" style="edgeStyle=orthogonalEdgeStyle;rounded=0;orthogonalLoop=1;jettySize=auto;html=1;exitX=1;exitY=0.5;exitDx=0;exitDy=0;entryX=0.5;entryY=1;entryDx=0;entryDy=0;" parent="1" source="1R9RX3AhEyXm8f2iCuX_-42" target="1R9RX3AhEyXm8f2iCuX_-71" edge="1">
          <mxGeometry relative="1" as="geometry" />
        </mxCell>
        <mxCell id="1R9RX3AhEyXm8f2iCuX_-42" value="Buku" style="rounded=0;whiteSpace=wrap;html=1;" parent="1" vertex="1">
          <mxGeometry x="706" y="480" width="120" height="60" as="geometry" />
        </mxCell>
        <mxCell id="1R9RX3AhEyXm8f2iCuX_-43" value="email_anggota" style="ellipse;whiteSpace=wrap;html=1;" parent="1" vertex="1">
          <mxGeometry x="-60" y="430" width="120" height="40" as="geometry" />
        </mxCell>
        <mxCell id="1R9RX3AhEyXm8f2iCuX_-46" value="nama" style="ellipse;whiteSpace=wrap;html=1;" parent="1" vertex="1">
          <mxGeometry x="-60" y="550" width="120" height="40" as="geometry" />
        </mxCell>
        <mxCell id="1R9RX3AhEyXm8f2iCuX_-47" value="no_telp" style="ellipse;whiteSpace=wrap;html=1;" parent="1" vertex="1">
          <mxGeometry x="120" y="585" width="120" height="40" as="geometry" />
        </mxCell>
        <mxCell id="1R9RX3AhEyXm8f2iCuX_-48" value="&lt;b&gt;&lt;u&gt;id_anggota&lt;/u&gt;&lt;/b&gt;" style="ellipse;whiteSpace=wrap;html=1;" parent="1" vertex="1">
          <mxGeometry x="120" y="401" width="120" height="40" as="geometry" />
        </mxCell>
        <mxCell id="1R9RX3AhEyXm8f2iCuX_-54" value="&lt;b&gt;&lt;u&gt;id_peminjaman&lt;/u&gt;&lt;/b&gt;" style="ellipse;whiteSpace=wrap;html=1;" parent="1" vertex="1">
          <mxGeometry x="416" y="401" width="120" height="40" as="geometry" />
        </mxCell>
        <mxCell id="1R9RX3AhEyXm8f2iCuX_-59" value="" style="edgeStyle=orthogonalEdgeStyle;rounded=0;orthogonalLoop=1;jettySize=auto;html=1;" parent="1" edge="1">
          <mxGeometry relative="1" as="geometry">
            <mxPoint x="372" y="512.0000000000001" as="sourcePoint" />
            <mxPoint x="416" y="512.0000000000001" as="targetPoint" />
          </mxGeometry>
        </mxCell>
        <mxCell id="1R9RX3AhEyXm8f2iCuX_-60" value="N" style="edgeLabel;html=1;align=center;verticalAlign=middle;resizable=0;points=[];" parent="1R9RX3AhEyXm8f2iCuX_-59" vertex="1" connectable="0">
          <mxGeometry x="-0.112" y="1" relative="1" as="geometry">
            <mxPoint x="5" y="-2" as="offset" />
          </mxGeometry>
        </mxCell>
        <mxCell id="1R9RX3AhEyXm8f2iCuX_-55" value="Melakukan" style="rhombus;whiteSpace=wrap;html=1;" parent="1" vertex="1">
          <mxGeometry x="292" y="470" width="80" height="80" as="geometry" />
        </mxCell>
        <mxCell id="1R9RX3AhEyXm8f2iCuX_-61" value="email_anggota" style="ellipse;whiteSpace=wrap;html=1;" parent="1" vertex="1">
          <mxGeometry x="482" y="583" width="120" height="40" as="geometry" />
        </mxCell>
        <mxCell id="1R9RX3AhEyXm8f2iCuX_-62" value="email_anggota" style="ellipse;whiteSpace=wrap;html=1;" parent="1" vertex="1">
          <mxGeometry x="357" y="583" width="120" height="40" as="geometry" />
        </mxCell>
        <mxCell id="1R9RX3AhEyXm8f2iCuX_-69" value="" style="edgeStyle=orthogonalEdgeStyle;rounded=0;orthogonalLoop=1;jettySize=auto;html=1;" parent="1" source="1R9RX3AhEyXm8f2iCuX_-66" target="1R9RX3AhEyXm8f2iCuX_-42" edge="1">
          <mxGeometry relative="1" as="geometry" />
        </mxCell>
        <mxCell id="1R9RX3AhEyXm8f2iCuX_-70" value="1" style="edgeLabel;html=1;align=center;verticalAlign=middle;resizable=0;points=[];" parent="1R9RX3AhEyXm8f2iCuX_-69" vertex="1" connectable="0">
          <mxGeometry x="0.3695" y="1" relative="1" as="geometry">
            <mxPoint x="-4" as="offset" />
          </mxGeometry>
        </mxCell>
        <mxCell id="1R9RX3AhEyXm8f2iCuX_-66" value="Transaksi" style="rhombus;whiteSpace=wrap;html=1;" parent="1" vertex="1">
          <mxGeometry x="580" y="470" width="80" height="80" as="geometry" />
        </mxCell>
        <mxCell id="1R9RX3AhEyXm8f2iCuX_-71" value="judul" style="ellipse;whiteSpace=wrap;html=1;" parent="1" vertex="1">
          <mxGeometry x="857" y="430" width="120" height="40" as="geometry" />
        </mxCell>
        <mxCell id="1R9RX3AhEyXm8f2iCuX_-72" value="pengarang" style="ellipse;whiteSpace=wrap;html=1;" parent="1" vertex="1">
          <mxGeometry x="857" y="549" width="120" height="40" as="geometry" />
        </mxCell>
        <mxCell id="1R9RX3AhEyXm8f2iCuX_-73" value="&lt;b&gt;&lt;u&gt;id_buku&lt;/u&gt;&lt;/b&gt;" style="ellipse;whiteSpace=wrap;html=1;" parent="1" vertex="1">
          <mxGeometry x="706" y="401" width="120" height="40" as="geometry" />
        </mxCell>
        <mxCell id="1R9RX3AhEyXm8f2iCuX_-74" value="penerbit" style="ellipse;whiteSpace=wrap;html=1;" parent="1" vertex="1">
          <mxGeometry x="706" y="583" width="120" height="40" as="geometry" />
        </mxCell>
      </root>
    </mxGraphModel>
  </diagram>
</mxfile>
